<svg id="Capa_1" enable-background="new 0 0 512 512" height="512" viewBox="0 0 512 512" width="512" xmlns="http://www.w3.org/2000/svg"><g id="XMLID_1013_"><g id="LINES_11_"><path d="m437.66 115.85v-72.786h-34.975v-43.064h-293.371v43.064h-34.974v72.785h15.072l32.044 284.648 14.906-1.679-1.526-13.557h242.328l-9.233 82.014h-223.862l-2.72-24.159-14.906 1.678 4.22 37.481h17.806v29.725h217.705v-29.724h15.165l41.25-366.426zm-86.487 381.15h-187.705v-14.724h187.705zm-261.833-438.936h241.66v-15h-206.686v-28.064h263.371v28.064h-41.685v15h76.66v42.785h-333.32zm43.807 312.198-6.07-53.923-12.764-113.384h283.374l-18.835 167.307zm266.229-182.307h-286.752l-8.117-72.105h302.986z"/><path d="m123.902 414.378h15v14.859h-15z" transform="matrix(.994 -.112 .112 .994 -46.353 17.344)"/><path d="m107.151 73.306h14.859v15h-14.859z"/><path d="m136.869 73.306h14.859v15h-14.859z"/><path d="m166.587 73.306h14.859v15h-14.859z"/><path d="m287.887 231.553c-11.279-6.514-25.085-6.786-38.877-.764-13.009 5.682-24.562 16.414-32.529 30.219-16.873 29.235-12.296 63.591 10.202 76.585 5.874 3.392 12.43 5.091 19.314 5.091 6.337 0 12.954-1.441 19.563-4.328 13.009-5.682 24.562-16.414 32.529-30.219 16.873-29.234 12.296-63.59-10.202-76.584zm-58.415 36.954c6.377-11.05 15.448-19.563 25.542-23.971 4.654-2.033 9.232-3.049 13.528-3.049 1.611 0 3.182.143 4.703.429l-44.914 77.823c-9.776-11.277-9.74-32.378 1.141-51.232zm55.626 32.134c-6.377 11.05-15.448 19.563-25.542 23.971-6.399 2.795-12.656 3.668-18.231 2.62l44.914-77.823c9.776 11.277 9.74 32.378-1.141 51.232z"/></g></g></svg>