<svg height="512" viewBox="0 0 58 60" width="512" xmlns="http://www.w3.org/2000/svg"><g id="Page-1" fill="none" fill-rule="evenodd"><g id="016---Bag" fill="rgb(0,0,0)" fill-rule="nonzero"><path id="Shape" d="m9.9 59c9.935.988 18.02 1 18.1 1h2c.08 0 8.165-.012 18.1-1.005 3.482-.348 6.051-1.723 7.637-4.086 2.331-3.475 1.819-8.188 1.221-10.194-3.069-10.315-5.175-34.025-5.746-41.046-.1586386-2.08055783-1.900453-3.68344652-3.987-3.669h-2.6c-.8939747-.00172455-1.6229505.71610486-1.635 1.61l-.014.484v.021c-.385 9.163-7.512 13.338-13.976 13.338s-13.584-4.172-13.976-13.32v-.032l-.014-.485c-.0087924-.89741774-.7405454-1.61934256-1.638-1.616h-2.6c-2.08539508-.01286376-3.8254395 1.58960185-3.984 3.669-.571 7.021-2.677 30.731-5.746 41.046-.6 2.006-1.11 6.719 1.221 10.194 1.586 2.363 4.155 3.738 7.637 4.091zm19.1-41.547c4.5405854.0490341 8.8968028-1.7935908 12.024-5.086-2.63 6.553-7.486 9.633-12.024 9.633s-9.393-3.08-12.023-9.631c3.1275171 3.2911112 7.483134 5.1329107 12.023 5.084zm-26.042 27.832c3.042-10.215 5.086-32.392 5.824-41.454.07986375-1.03927591.95069322-1.83932045 1.993-1.831h2.243v.155.029c.431 14.988 8.582 21.816 15.982 21.816s15.563-6.836 15.978-21.844l.004-.156h2.243c1.0423068-.00832045 1.9131362.79172409 1.993 1.831.738 9.062 2.782 31.239 5.824 41.454.405 1.362 1.021 5.547-.966 8.51-1.237 1.844-3.315 2.924-6.176 3.21-9.83.983-17.821.995-17.9.995h-2c-.079 0-8.063-.011-17.9-.995-2.861-.286-4.939-1.366-6.176-3.21-1.987-2.963-1.371-7.148-.966-8.51z"/><path id="Shape" d="m10.3 55.015c.0332058.0036348.0665973.0053044.1.005.5522847.0276142 1.0223858-.3977153 1.05-.95s-.3977153-1.0223858-.95-1.05c-2.436-.244-3.051-1.158-3.253-1.459-.959-1.431-.764-4.1-.453-5.139.1446791-.5245224-.15656535-1.0684615-.67793757-1.2241112-.52137221-.1556498-1.07151054.1341186-1.23806243.6521112-.389 1.3-.727 4.685.709 6.827.33.498 1.339 2.001 4.713 2.338z"/><path id="Shape" d="m47.6 55.02c.0334027.0003044.0667942-.0013652.1-.005 3.373-.337 4.382-1.84 4.714-2.334 1.436-2.141 1.1-5.523.709-6.826-.1665519-.5179926-.7166902-.807761-1.2380624-.6521112-.5213722.1556497-.8226167.6995888-.6779376 1.2241112.311 1.044.506 3.708-.454 5.139-.2.3-.816 1.215-3.252 1.459-.5522847.0276143-.9776142.4977153-.9499999 1.05.0276142.5522847.4977152.9776142 1.0499999.95z"/></g></g></svg>