<svg id="Layer_1" enable-background="new 0 0 512 512" height="512" viewBox="0 0 512 512" width="512" xmlns="http://www.w3.org/2000/svg"><g><path d="m437.532 475.609c-1.942-8.68-4.143-21.711-3.794-29.02.337-7.053 6.917-34.49 7.637-37.96 1.131-5.4-2.353-10.71-7.758-11.83-.681-.14-1.371-.21-2.052-.21-4.715 0-8.829 3.35-9.79 7.96-.72 3.5-6.376 29.96-7.798 38.87-.281 1.729-.411 3.58-.411 5.8.01 4.55.561 9.98 1.742 17.09 1.251 7.42 3.112 16.061 5.536 25.69h-329.416c.691-2.83 4.684-21.16 5.566-26.51 1.181-7.24 1.721-12.5 1.732-17.04-.01-1.761-.09-3.24-.261-4.681-1.171-9.25-7.848-41.79-8.728-46.229-4.264-21.4-6.246-35.87-6.216-45.54-.02-10.351 1.831-25.471 5.485-44.931 2.112-11.3 8.528-41.21 9.319-45.05 1.782-8.67 3.053-20.069 3.873-34.88.701-12.49 1.051-27.45 1.051-44.439 0-59.141-4.234-125.61-4.715-132.99.18-16.351 13.653-29.68 30.03-29.71 16.526.03 30 13.49 30.03 30v112c0 6.75 1.321 13.3 3.934 19.46 2.523 5.96 6.126 11.3 10.731 15.89 4.594 4.59 9.94 8.2 15.906 10.72 6.166 2.61 12.723 3.931 19.479 3.931h95.094c6.757 0 13.313-1.32 19.479-3.931 5.966-2.52 11.311-6.13 15.905-10.72s8.208-9.93 10.73-15.89c2.613-6.16 3.935-12.71 3.935-19.46v-111.999c.03-16.51 13.504-29.97 30.03-30 16.346.03 29.82 13.34 30.03 29.66-.561 7.39-5.446 73.93-5.446 133.199 0 16.98.411 31.95 1.211 44.49.961 14.87 2.443 26.311 4.515 34.98 0 0 9.019 37.569 11.892 56.479.37 2.37 1.571 4.54 3.403 6.101 2.202 1.869 5.135 2.71 8.008 2.279 2.643-.399 4.965-1.81 6.556-3.96 1.582-2.149 2.233-4.79 1.832-7.43-3.003-19.72-12.232-58.13-12.232-58.13-1.771-7.34-3.154-18.26-3.994-31.59-.78-12.15-1.171-26.681-1.171-43.221 0-31.909 1.472-66.14 2.713-89.229.701-13.17 2.733-43.63 2.733-43.63 0-6.75-1.331-13.3-3.935-19.46-2.522-5.96-6.136-11.3-10.73-15.891-4.594-4.6-9.94-8.199-15.905-10.72-6.166-2.608-12.722-3.927-19.479-3.927s-13.313 1.319-19.479 3.93c-5.966 2.521-11.311 6.12-15.906 10.72-4.604 4.591-8.207 9.931-10.73 15.891-2.613 6.16-3.934 12.71-3.934 19.46v72c0 16.542-13.471 30-30.03 30h-55.055c-16.558 0-30.03-13.458-30.03-30v-72.001c0-27.57-22.452-50-50.05-50h-40.04c-6.757 0-13.314 1.319-19.479 3.93-5.966 2.521-11.312 6.12-15.906 10.72-4.594 4.591-8.208 9.931-10.731 15.891-2.612 6.159-3.933 12.709-3.933 19.459 0 0 .32 5.14.751 12.56 1.191 20.42 3.964 73 3.964 120.141 0 16.59-.341 31.17-1.011 43.34-.74 13.439-1.952 24.489-3.493 31.939-.771 3.721-7.217 33.771-9.399 45.41-2.704 14.52-5.807 33.17-5.827 48.61.03 14.83 3.423 33.29 6.596 49.42.861 4.31 7.487 36.71 8.498 44.82.03.26-.41 10.359-1.351 16.01-1.432 8.689-8.369 37.069-8.378 37.08-.831 2.989-.2 6.26 1.682 8.729 1.882 2.46 4.865 3.94 7.968 3.94h355.353c3.123 0 6.115-1.49 7.998-3.99 1.882-2.49 2.482-5.77 1.621-8.78 0 0-3.783-13.759-5.955-23.62zm-238.898-425.609v72c0 27.57 22.452 50 50.05 50h55.055c11.257 0 21.659-3.733 30.03-10.023v.023c-.03 16.51-13.504 29.97-30.03 30h-95.094c-16.527-.03-30-13.49-30.03-30v-112c0-6.75-1.322-13.3-3.934-19.46-1.597-3.773-3.631-7.296-6.074-10.54 16.557.001 30.027 13.458 30.027 30z"/><path d="m210.346 290.146-5.665 17.417c-1.708 5.252 1.169 10.894 6.427 12.601 1.028.333 2.07.492 3.095.492 4.22 0 8.144-2.687 9.518-6.913l12.373-38.042c1.708-5.252-1.169-10.894-6.427-12.601l-38.08-12.361c-5.255-1.701-10.904 1.168-12.614 6.421-1.708 5.252 1.169 10.894 6.427 12.601l13.05 4.236c-25.58 16.152-41.945 44.572-41.945 76.094 0 8.191 1.104 16.301 3.281 24.104 1.234 4.422 5.256 7.318 9.637 7.318.89 0 1.794-.12 2.693-.37 5.325-1.482 8.44-6.997 6.955-12.317-1.689-6.056-2.545-12.358-2.545-18.735-.002-25.016 13.235-47.527 33.82-59.945z"/><path d="m310.872 413.147c3.874-3.939 3.818-10.271-.126-14.142-3.942-3.868-10.28-3.813-14.156.126-13.291 13.515-31.046 20.958-49.996 20.958-11.136 0-21.851-2.589-31.498-7.452l15.405-2.163c5.475-.769 9.289-5.825 8.52-11.294-.77-5.469-5.833-9.279-11.306-8.511l-39.65 5.566c-2.629.369-5.004 1.766-6.601 3.884s-2.288 4.784-1.918 7.41l5.572 39.611c.703 4.997 4.989 8.609 9.9 8.609.464 0 .934-.032 1.406-.099 5.475-.769 9.289-5.825 8.52-11.294l-2.198-15.623c13.249 7.401 28.228 11.354 43.85 11.354 24.362.003 47.19-9.566 64.276-26.94z"/><path d="m323.766 381.51c2.213 0 4.44-.729 6.293-2.229l31.117-25.173c4.296-3.476 4.959-9.772 1.48-14.064-3.481-4.293-9.783-4.953-14.078-1.479l-11.934 9.654c-.83-40.302-28.354-75.219-67.535-85.294-5.353-1.373-10.811 1.844-12.189 7.192s1.846 10.8 7.2 12.177c29.857 7.677 51.018 33.913 52.46 64.465l-10.237-12.629c-3.48-4.293-9.783-4.953-14.078-1.479-4.296 3.476-4.959 9.772-1.48 14.064l25.198 31.086c1.977 2.442 4.867 3.709 7.783 3.709z"/><circle cx="438.5" cy="362.149" r="10"/></g></svg>