<?xml version="1.0" encoding="UTF-8"?>
<svg xmlns="http://www.w3.org/2000/svg" id="Layer_1" data-name="Layer 1" viewBox="0 0 512 512" width="512" height="512"><circle cx="401.71" cy="368.747" r="7"/><circle cx="401.71" cy="344.747" r="7"/><circle cx="401.71" cy="394.747" r="7"/><circle cx="425.71" cy="368.747" r="7"/><circle cx="425.71" cy="344.747" r="7"/><circle cx="425.71" cy="394.747" r="7"/><circle cx="401.71" cy="314.747" r="7"/><path d="M489.768,46.253H22.232A17.251,17.251,0,0,0,5,63.485V348.5a17.251,17.251,0,0,0,17.232,17.232H188.224v35.8H163.679a6,6,0,1,0,0,12H348.321a6,6,0,0,0,0-12H323.776v-35.8H377.71v64.016a36,36,0,0,0,72,0V365.731h40.058A17.251,17.251,0,0,0,507,348.5V63.485A17.251,17.251,0,0,0,489.768,46.253ZM311.776,401.53H200.224v-35.8H311.776ZM437.71,423.747h-7.085a6,6,0,0,0,0,12h6.325a24,24,0,0,1-46.48,0h20.043a6,6,0,0,0,0-12h-20.8v-124a4,4,0,0,1,4-4h40a4,4,0,0,1,4,4ZM495,348.5a5.238,5.238,0,0,1-5.232,5.232H449.71v-21.7H467.3a6,6,0,0,0,6-6V85.949a6,6,0,0,0-6-6H127.415a6,6,0,0,0,0,12H461.3V320.035H449.71V299.747a16.019,16.019,0,0,0-16-16h-40a16.019,16.019,0,0,0-16,16v20.288H50.7V91.949H87.415a6,6,0,0,0,0-12H44.7a6,6,0,0,0-6,6V326.035a6,6,0,0,0,6,6H377.71v21.7H22.232A5.238,5.238,0,0,1,17,348.5V63.485a5.238,5.238,0,0,1,5.232-5.232H489.768A5.238,5.238,0,0,1,495,63.485Z"/><path d="M304.335,240.844a6,6,0,0,0-8.409,1.135,50.874,50.874,0,0,1-5.26,5.882,6,6,0,0,0,8.3,8.672,62.7,62.7,0,0,0,6.508-7.28A6,6,0,0,0,304.335,240.844Z"/><path d="M256,273.769a62.166,62.166,0,0,0,17.913-2.623,6,6,0,1,0-3.453-11.492,50.1,50.1,0,1,1,34-35.05,6,6,0,0,0,11.592,3.1A62.168,62.168,0,1,0,256,273.769Z"/><path d="M284.2,206.808l-32.092-24.069a6,6,0,0,0-9.6,4.8v48.138a6,6,0,0,0,9.6,4.8L284.2,216.408a6,6,0,0,0,0-9.6Zm-29.691,16.869V199.539L270.6,211.608Z"/></svg>
